<svg width="64" height="64" viewBox="0 0 64 64" fill="none" xmlns="http://www.w3.org/2000/svg">
<rect width="64" height="64" fill="#8B6E52"/>
<path d="M6.73682 6.73685V10.1053H13.4737V47.1579H6.73682V50.5263H23.5789V47.1579H16.8421V10.1053H26.9473V53.8947H6.73682V57.2632H30.3158V6.73685H6.73682Z" fill="white"/>
<path d="M23.5789 13.4737H20.2105V43.7895H23.5789V13.4737Z" fill="white"/>
<path d="M6.73682 13.4737H10.1052V43.7895H6.73682V13.4737Z" fill="white"/>
<path d="M37.0526 53.8947V10.1053H47.1579V47.1579H40.421V50.5263H57.2631V47.1579H50.5263V10.1053H57.2631V6.73685H33.6842V57.2632H57.2631V53.8947H37.0526Z" fill="white"/>
<path d="M53.8947 13.4737H57.2631V43.7895H53.8947V13.4737Z" fill="white"/>
<path d="M40.421 43.7895H43.7894V13.4737H40.421V43.7895Z" fill="white"/>
</svg>
